PathFileType	4	(X/Y/Z)	C:\Users\Basilio\Documents\Thesis Gigler\squatting_fais\c3dfiles\019\SLS_front_pre2\markers_experimental.trc
DataRate	CameraRate	NumFrames	NumMarkers	Units	OrigDataRate	OrigDataStartFrame	OrigNumFrames
200.000000	200.000000	4	59	mm	200.000000	1048	1677
Frame#	Time	FHD			LBHD			RBHD			C7			T10			CLAV			LSHO			LUUPA			LMUPA			LDUPA			LLEP			LMEP			LRAD			LUL			LRFIN			RSHO			RUPA1			RMUPA			RDUPA			RLEP			RMEP			RRAD			RUL			RUFIN			LASI			RASI			USACR			LSACR			RSACR			LTHI1			LTHI2			LTHI3			LTHI4			LLFC			LTIB1			LTIB2			LTIB3			LTIB4			LLMAL			LMMAL			LHEE			LMT1			LMT2			LMT5			RTHI2			RTHI3			RTHI4			RLFC			RTIB1			RTIB2			RTIB3			RTIB4			RLMAL			RMMAL			RHEE			RMT1			RMT2			RMT5			RTHI			
		X1	Y1	Z1	X2	Y2	Z2	X3	Y3	Z3	X4	Y4	Z4	X5	Y5	Z5	X6	Y6	Z6	X7	Y7	Z7	X8	Y8	Z8	X9	Y9	Z9	X10	Y10	Z10	X11	Y11	Z11	X12	Y12	Z12	X13	Y13	Z13	X14	Y14	Z14	X15	Y15	Z15	X16	Y16	Z16	X17	Y17	Z17	X18	Y18	Z18	X19	Y19	Z19	X20	Y20	Z20	X21	Y21	Z21	X22	Y22	Z22	X23	Y23	Z23	X24	Y24	Z24	X25	Y25	Z25	X26	Y26	Z26	X27	Y27	Z27	X28	Y28	Z28	X29	Y29	Z29	X30	Y30	Z30	X31	Y31	Z31	X32	Y32	Z32	X33	Y33	Z33	X34	Y34	Z34	X35	Y35	Z35	X36	Y36	Z36	X37	Y37	Z37	X38	Y38	Z38	X39	Y39	Z39	X40	Y40	Z40	X41	Y41	Z41	X42	Y42	Z42	X43	Y43	Z43	X44	Y44	Z44	X45	Y45	Z45	X46	Y46	Z46	X47	Y47	Z47	X48	Y48	Z48	X49	Y49	Z49	X50	Y50	Z50	X51	Y51	Z51	X52	Y52	Z52	X53	Y53	Z53	X54	Y54	Z54	X55	Y55	Z55	X56	Y56	Z56	X57	Y57	Z57	X58	Y58	Z58	X59	Y59	Z59	

1049	5.24	-178.081298828125	1357.168334960938	-626.8649902343751	-308.0118103027344	1332.912841796875	-770.6504516601565	-311.8164367675782	1325.816772460938	-630.6887817382814	-366.6995849609376	1192.388549804688	-691.2561035156251	-524.9424438476564	958.9194946289065	-695.2895507812501	-249.0078582763672	1103.249633789063	-699.5965576171876	-292.6731567382813	1188.621215820313	-813.9782714843752	-179.78076171875	1173.854125976563	-874.4605102539065	-151.824462890625	1156.778686523438	-835.9744262695315	-113.6095428466797	1172.353515625	-879.6795043945315	-44.36438369750977	1154.16748046875	-920.509948730469	-44.41967010498048	1094.494873046875	-918.273132324219	209.3704681396485	1147.3310546875	-849.6380004882815	202.8762664794922	1162.043090820313	-914.9053955078127	276.6465759277344	1171.169311523438	-846.575866699219	-269.4290466308594	1186.31005859375	-591.8814086914064	-159.6142272949219	1144.379028320313	-483.838348388672	-138.2045440673828	1166.146484375	-522.6779174804689	-90.28514099121095	1143.269775390625	-485.6913452148439	-14.305570602417	1144.893432617188	-500.4335327148439	-19.57555198669434	1085.523071289063	-504.4068603515626	219.003646850586	1167.698608398438	-598.5833740234376	228.4161682128907	1179.51513671875	-531.3084106445314	300.0586242675782	1192.165771484375	-602.7578125000001	-477.7309875488282	745.5482788085939	-821.8856201171877	-467.4915161132814	726.9038085937501	-618.9842529296876	-601.2512207031251	829.1507568359377	-708.8061523437501	-619.2224121093751	801.260437011719	-735.3956298828126	-615.8551025390626	799.9451293945315	-679.6890258789064	-396.7814331054689	611.1765136718751	-929.7902832031252	-312.1751098632813	624.8763427734376	-934.5562744140627	-298.6797180175782	667.3802490234376	-913.9906005859377	-267.4818725585938	582.3449707031251	-930.0842285156252	-183.2893524169922	542.7799682617189	-913.4023437500002	-70.65074920654298	449.6927490234376	-888.7310180664065	-110.6218948364258	384.4610290527345	-934.1157836914065	-73.31475830078126	396.8032531738282	-914.4814453125002	-42.80789184570313	324.4447937011719	-877.8421020507815	-58.15426254272462	180.38330078125	-892.0039672851565	-37.78749465942384	197.7058410644532	-814.278503417969	-116.0392532348633	144.9944610595703	-833.407653808594	100.0359573364258	144.1324920654297	-830.6700439453127	101.1589584350586	139.0274047851563	-869.684020996094	57.01322555541994	103.3352432250977	-912.8719482421877	-371.2308044433594	595.7384033203126	-560.8225708007814	-361.2247314453126	626.6801147460939	-577.4199218750001	-313.1855773925782	536.8742065429689	-565.7267456054689	-208.0836944580079	435.265594482422	-617.1207275390626	-216.6850738525391	281.2425537109376	-701.5166625976564	-295.0340270996094	221.1009521484376	-649.0468750000001	-265.7338256835938	207.3501434326172	-686.6165771484376	-296.0802612304688	186.6868896484375	-732.6865234375001	-384.2708129882814	123.5793380737305	-689.1447753906251	-366.5158386230469	136.1225738525391	-766.7889404296876	-456.1077575683595	106.3350219726563	-748.5883789062501	-257.2930908203126	59.07186126708986	-773.789733886719	-248.9173889160157	54.44645309448244	-731.5406494140626	-293.0218200683594	48.00508117675783	-674.2525024414064	-435.7830810546876	585.9983520507814	-548.7477416992189	
1050	5.245	-178.1483154296875	1357.75732421875	-627.0193481445314	-307.6368103027344	1333.4521484375	-770.764587402344	-311.8976440429688	1326.406494140625	-630.8484497070314	-361.2971801757813	1191.139770507813	-688.0463256835939	-525.0054321289064	959.4500122070315	-695.2935180664064	-243.8251647949219	1104.087036132813	-697.6130981445314	-292.7672424316407	1189.218139648438	-814.0120849609377	-180.1007385253907	1174.583618164063	-874.621520996094	-151.8900299072266	1157.456665039063	-836.083679199219	-113.7157745361328	1172.88916015625	-879.7385864257815	-44.46503829956055	1154.684814453125	-920.6407470703127	-44.54519653320313	1094.986938476563	-918.3917236328127	209.1624603271485	1147.860595703125	-849.8162231445315	202.8800201416016	1162.527221679688	-914.7532958984377	276.5596008300782	1171.612548828125	-846.7252197265627	-269.7369384765626	1186.706176757813	-592.2612915039064	-159.6770172119141	1144.98046875	-483.9408569335939	-138.3211364746094	1166.82861328125	-522.7648315429689	-90.58795166015626	1143.90673828125	-485.701873779297	-14.54742240905762	1145.557250976563	-500.4909057617189	-19.64629364013672	1085.827880859375	-504.5201416015626	219.1001434326172	1168.5009765625	-598.4135131835939	228.3834686279297	1180.319458007813	-531.3043823242189	300.4656982421876	1192.57861328125	-602.9765625000001	-477.6919860839845	746.1242675781251	-821.9176025390627	-467.5544433593751	727.3026733398439	-619.0281982421876	-601.2338256835939	829.7064208984377	-708.7722167968751	-619.2728271484376	801.9501953125002	-735.3594360351564	-615.8314819335939	800.5103149414065	-679.7149658203126	-396.7787475585939	611.6719970703126	-929.8276977539065	-312.1003723144532	625.3051757812501	-934.5738525390627	-298.6648254394532	667.8615722656251	-914.1084594726565	-267.5318298339844	582.8810424804689	-930.0415649414065	-183.396713256836	543.2446289062501	-913.4714965820315	-70.60867309570314	450.1659240722657	-888.759216308594	-110.4832611083985	384.8730773925782	-934.2021484375002	-73.34525299072267	397.436248779297	-914.5042724609377	-42.79339599609376	324.9542236328126	-877.9781494140627	-57.63372802734376	180.8402099609375	-891.848571777344	-37.58644104003907	198.3119659423829	-814.1851196289065	-115.9568328857422	145.5162811279297	-833.415710449219	100.0157546997071	144.5899658203125	-830.836120605469	101.0648880004883	139.4988250732422	-869.8259277343752	56.99199676513673	103.8711776733399	-913.0048828125002	-371.2024230957032	596.1266479492189	-560.9697875976564	-360.9077453613282	626.8977661132814	-577.3762207031251	-313.2293701171876	537.0730590820314	-565.6431884765626	-208.2642059326172	435.3680419921876	-617.2484130859376	-216.8074493408204	281.2825317382813	-701.6060791015626	-295.0630798339844	221.1868896484376	-649.0903320312501	-265.7103576660157	207.2929382324219	-686.7370605468751	-296.1077575683594	186.6969451904297	-732.7384033203126	-384.2690429687501	123.5838241577149	-689.1530761718751	-366.5532836914063	136.1146697998047	-766.8396606445314	-455.8437805175782	106.3292846679688	-748.6622314453126	-257.2938537597657	59.06641387939455	-773.8145751953127	-248.9613494873047	54.43171310424806	-731.6868896484376	-293.0049438476563	47.98873901367188	-674.2302856445314	-435.8147583007814	586.4219360351564	-548.8048095703126	
1051	5.25	-178.325668334961	1358.396362304688	-627.1122436523439	-307.6609497070313	1334.081176757813	-770.8615722656252	-311.9942626953126	1327.142211914063	-630.8905029296876	-361.6082458496094	1191.580200195313	-688.2763671875001	-524.9009399414064	959.9341430664065	-695.3685302734376	-244.025375366211	1104.68994140625	-697.6909179687501	-292.8386840820313	1189.827270507813	-814.134704589844	-180.1011810302735	1175.1875	-874.7034301757815	-151.2611083984375	1159.213134765625	-835.6857910156252	-113.9156799316407	1173.551025390625	-879.9721679687502	-44.54367065429688	1155.197265625	-920.7980957031252	-44.72799301147462	1095.696166992188	-918.549743652344	208.9519958496094	1148.319213867188	-849.9463500976565	202.6153564453126	1163.039794921875	-915.0195312500002	276.5862426757813	1171.919799804688	-846.777770996094	-268.3345336914063	1186.595703125	-593.0642700195314	-159.7889862060547	1145.674438476563	-483.9587402343751	-138.3354034423828	1167.531005859375	-522.6935424804689	-90.61904144287111	1144.53076171875	-485.651824951172	-14.50037002563477	1146.071044921875	-500.462127685547	-19.74108695983887	1086.024169921875	-504.7500610351564	218.9527435302735	1169.037231445313	-598.4658203125001	228.2225341796876	1180.926391601563	-531.3589477539064	299.7763061523438	1193.246337890625	-602.9694213867189	-477.6626892089845	746.7402954101564	-821.9031372070315	-467.4347229003907	727.7440185546876	-619.0101928710939	-601.2754516601564	830.3760986328127	-708.6889648437501	-619.0412597656251	802.4075927734377	-735.3529052734376	-615.6699829101564	800.9653320312502	-679.6222534179689	-396.7427673339845	612.2160644531251	-929.8144531250002	-312.1262817382813	625.8300170898439	-934.6284790039065	-298.6551208496094	668.4046020507814	-914.156921386719	-267.6240844726563	583.4273681640626	-930.1301879882815	-183.3209228515625	543.8228149414064	-913.518493652344	-70.62331390380861	450.6459350585939	-888.7518310546877	-110.4307098388672	385.364959716797	-934.2298583984377	-73.27745819091798	397.9620971679689	-914.5288696289065	-42.74164581298829	325.4922790527344	-877.9822998046877	-57.39488601684572	181.3232574462891	-891.8599243164065	-37.6701774597168	198.9255371093751	-814.1904296875002	-116.0117568969727	146.0399932861328	-833.565856933594	99.87738800048831	144.966049194336	-831.0323486328127	101.0830993652344	139.973617553711	-869.901306152344	56.91480636596681	104.4897384643555	-913.199890136719	-371.3255310058594	596.4051513671876	-560.9923706054689	-360.5101318359376	627.1303100585939	-577.3178710937501	-313.2930297851563	537.2816772460939	-565.7800903320314	-208.4009704589844	435.506805419922	-617.3063354492189	-216.9241638183594	281.4627685546876	-701.5997314453126	-295.1466979980469	221.2111511230469	-649.1811523437501	-265.7971801757813	207.3464813232422	-686.6817626953126	-296.1765747070313	186.7071380615235	-732.7778930664064	-384.2226867675782	123.5680618286133	-689.1807861328126	-366.5130310058594	136.0696868896485	-766.8701171875001	-455.9689331054689	106.355453491211	-748.6149902343751	-257.3168029785157	59.07149124145509	-773.7991943359377	-248.8604736328126	54.40791320800783	-731.5051879882814	-293.0638427734376	48.00236892700197	-674.2655029296876	-435.9093322753907	586.8662719726564	-548.9198608398439	
1052	5.255	-178.4556121826172	1359.036254882813	-627.1268920898439	-307.6698608398438	1334.767944335938	-770.9109497070315	-312.1573486328126	1327.791015625	-631.0833129882814	-362.4608764648438	1192.370239257813	-688.2307128906251	-524.9981079101564	960.5638427734377	-695.3536987304689	-244.8928527832032	1105.225830078125	-697.4326171875001	-293.0361633300782	1190.554077148438	-814.233093261719	-180.023178100586	1175.859252929688	-874.863464355469	-151.1317749023438	1160.170654296875	-835.5505371093752	-113.9736251831055	1174.135620117188	-880.0942382812502	-44.72691345214844	1155.843139648438	-920.955505371094	-44.72854614257813	1096.137084960938	-918.6426391601565	209.0356445312501	1148.650512695313	-849.9853515625002	202.4549865722657	1163.403930664063	-914.4807739257815	276.5561828613282	1172.205078125	-846.7653808593752	-269.7961425781251	1187.944458007813	-592.3793945312501	-159.9442291259766	1146.461669921875	-483.9456787109376	-138.4835662841797	1168.212646484375	-522.7908325195314	-90.7375946044922	1145.168579101563	-485.7685546875001	-14.66442394256592	1146.686767578125	-500.425750732422	-19.77528762817383	1086.859252929688	-504.8445129394532	218.5868682861329	1169.51611328125	-598.5641479492189	227.9822998046876	1181.4072265625	-531.5906372070314	300.1973571777344	1193.727416992188	-603.0898437500001	-477.6698303222657	747.3671875000001	-821.9429931640627	-467.3970336914064	728.2251586914064	-618.9840087890626	-601.3414916992189	830.8228759765627	-708.6925048828126	-619.1108398437501	803.0712890625002	-735.2883911132814	-615.8479003906251	801.5799560546877	-679.5319824218751	-396.7500305175782	612.7785644531251	-929.8194580078127	-312.0510253906251	626.3001098632814	-934.6197509765627	-298.6243591308594	668.9983520507814	-914.188171386719	-267.6785583496094	583.9928588867189	-930.1232910156252	-183.2132873535157	544.1895141601564	-913.5218505859377	-70.65027618408205	451.166229248047	-888.809753417969	-110.5238876342774	385.8901367187501	-934.3022460937502	-73.2622528076172	398.4780273437501	-914.5653076171877	-42.70334625244141	326.0415039062501	-877.984802246094	-57.74875640869142	181.9510192871094	-891.9931640625002	-37.64730834960938	199.4739990234376	-814.260681152344	-115.9945373535157	146.5267639160157	-833.5830688476565	99.90106964111331	145.5280303955078	-831.1038208007815	101.0586547851563	140.4065093994141	-870.0742187500002	56.25248336791994	105.0957260131836	-913.9805297851565	-371.3101501464844	596.7974243164064	-561.1646728515626	-360.3272705078126	627.3651123046876	-577.3786010742189	-313.4143981933594	537.4851074218751	-565.7885131835939	-208.675033569336	435.6730041503907	-617.4400634765626	-217.0398406982422	281.5105590820313	-701.6657104492189	-295.2719421386719	221.2862243652344	-649.3053588867189	-265.8686828613282	207.4409942626954	-686.6976928710939	-296.2184448242188	186.7195434570313	-732.8136596679689	-384.3053588867189	123.59814453125	-689.2073364257814	-366.5307312011719	136.0515594482422	-766.8689575195314	-455.9481201171876	106.4201049804688	-748.6148681640626	-257.3207092285157	59.0546226501465	-773.8189697265627	-248.9091796875001	54.42423248291017	-731.5352783203126	-293.0926818847657	48.02595520019533	-674.2565307617189	-435.8887329101564	587.3703613281251	-549.0479736328126	
